<svg width="18" height="18" viewBox="0 0 18 18" fill="none" xmlns="http://www.w3.org/2000/svg">
<path d="M8.25 16.5V13.3875L5.8125 15.7875L4.7625 14.7375L8.25 11.25V9.75H6.75L3.2625 13.2375L2.2125 12.1875L4.6125 9.75H1.5V8.25H4.6125L2.2125 5.8125L3.2625 4.7625L6.75 8.25H8.25V6.75L4.7625 3.2625L5.8125 2.2125L8.25 4.6125V1.5H9.75V4.6125L12.1875 2.2125L13.2375 3.2625L9.75 6.75V8.25H11.25L14.7375 4.7625L15.7875 5.8125L13.3875 8.25H16.5V9.75H13.3875L15.7875 12.1875L14.7375 13.2375L11.25 9.75H9.75V11.25L13.2375 14.7375L12.1875 15.7875L9.75 13.3875V16.5H8.25Z" fill="#FF3586"/>
</svg>
