<svg xmlns="http://www.w3.org/2000/svg" viewBox="0 0 1522 1376"><path fill="#764abc" d="M565.48 1092.19c-86.2 15.3-151.56-77.15-107.43-153.53a1.93 1.91 45.3 0 0 0-1.93c-46.95-80.01-81.96-167.93-100.38-259.05q-41.63-205.91 34.35-400.79C450.74 126.29 587.02 6.09 753.8.3c120.32-4.18 228.59 63.31 296.06 159.36 60.4 85.99 89.94 190.1 97.05 294a.3.3 0 0 1-.4.3q-45.33-15.98-91.87-27.99-.54-.13-.59-.69c-5.11-58.98-24.37-118.2-51.02-170.83-45.31-89.5-122.46-167.01-229.78-165.69q-22.47.28-48.2 5.24c-64.98 12.54-130.96 41-175.94 91q-5.79 6.44-12.71 15.44c-61.4 79.97-93.03 172.79-101.21 273.25-11.88 145.88 19.95 288.36 95.21 414.51q.24.4.7.34c50.61-6.91 98.24 20.94 114.19 69.58 19.55 59.62-18.03 123.1-79.81 134.07Z"/><path fill="#764abc" d="M635.18 624.35c-41.72-17.78-65.68-60.78-61.55-105.24 5.32-57.42 57.92-98.61 114.49-92.17 33.96 3.86 62.4 24.34 78.91 54.15q.23.43.72.41c114.84-4.13 231.75 13.85 338.46 57.03q170.59 69.03 287.09 211.92c84.16 103.23 129.93 243.37 95.22 375.57-23.3 88.74-95.57 160.09-175.72 201.31-140.67 72.32-301.45 58.42-441.04-7.76a.48.48 0 0 1-.08-.82c27.85-20.93 55.88-42.39 81.74-65.72q.6-.54 1.35-.22c117.4 51.09 272.97 62.59 373.92-32.63q38.24-36.07 62.03-84.92c31.35-64.38 29.42-136.57 4.74-202.76-36.75-98.59-103.6-179.03-190.05-238.41-117.06-80.42-251-124.25-393.17-125.34-12.86-.1-26.99.72-40.48 1.24a.82.81 11.3 0 0-.71.47c-23.83 52.32-82.41 76.67-135.87 53.89Z"/><path fill="#764abc" d="M871.38 1076.5q59.84-63.04 99.98-141.82.34-.67-.19-1.22c-38.12-39.07-39.38-100.26-3.11-140.98 41.16-46.2 114.76-45.58 154.98 1.62 53.29 62.51 16.76 159.48-65.73 169.78q-.5.06-.72.52c-69.44 142.05-178.89 256.38-318.64 328.06-68.15 34.95-142.5 59.08-219.52 73.11q-77.8 14.17-156.43 3.2c-110.36-15.41-221.14-73.57-271.77-177.21-47.22-96.68-49.63-209.89-12.73-310.12 35.66-96.83 105.58-176.53 188.46-235.98q.62-.45.77.3 9.88 47.1 24.26 93.03.16.48-.24.79c-61.83 48.29-115.96 114.45-142.15 189.19-31.21 89.1-15.3 179.02 40.37 254.5 40.81 55.34 105.19 86.76 172.29 96.47 98.68 14.29 198.16-3.24 288.27-46.8 80.88-39.1 159.74-91.02 221.85-156.44Z"/></svg>