<svg xmlns="http://www.w3.org/2000/svg" viewBox="0 0 1187 1187"><g fill="none" stroke="#80bde6" stroke-width="2"><path d="M872.71 726.6c-31.02-21.97-29.06-72.81 9.11-85.86q8.7-2.98 19.26-3.42c22.71-.95 43.38 6.49 57.89 24.46 5.01 6.2 10.06 13.93 16.5 20.55a1.11 1.11 0 0 0 1.38.17q37.07-23.28 72.99-48.15 4.01-2.77 9.08-6.92.4-.33.17-.8-2.12-4.29-3.26-5.95c-30.52-44.79-67.8-73.78-123.83-77.94q-25.52-1.9-48.01-.86c-30.14 1.4-60.65 12.42-84.67 29.68q-38.27 27.49-51.97 74.35c-6.68 22.87-5.54 50.53-2.55 74.44 3.85 30.7 23.46 61.47 45.72 81.87 32.9 30.14 77.14 47.63 117.97 65.55q26.41 11.58 40.77 20.2c22.25 13.36 33.81 27.13 32.18 54.6-1.75 29.52-30.54 44.54-56.21 48.33-27.16 4.02-59.53-.31-82.08-16.77q-19.24-14.05-33.77-33.07c-2.95-3.86-6.99-10.04-10.58-15.04q-.35-.48-.87-.18-43.16 24.81-86.16 49.9-1.52.88-2.25 2.17-.28.5-.03 1.01c6.37 12.87 15.61 25.34 24.29 36.5 32.85 42.2 92.1 68.8 144.49 72.94q28.36 2.24 56.76.58 10.77-.63 19.85-2.27c68.38-12.37 125.9-52.73 135.92-125.43q5.65-41.05-6.55-80c-14.1-45.02-47.8-71.67-88.22-93.75-28.99-15.84-52.2-25.58-88.38-41.56q-20.32-8.98-34.94-19.33M413.87 644.25q.63 0 .63.62v437.88q0 .5.5.5h108.25q.5 0 .5-.5v-438a.5.5 0 0 1 .5-.5H677.7q.64 0 .64-.64l-.96-95.79q-.01-.54-.54-.54c-128.02-.1-256.01-.92-384.03-.15q-14.76.09-30.11.44-1.68.03-1.74 1.71c-1.06 31.47-1.15 62.98-.93 94.55q0 .42.43.42h153.41" vector-effect="non-scaling-stroke"/></g><path fill="#007acc" d="M0 0h1187v1187H0V0Zm872.71 726.6c-31.02-21.97-29.06-72.81 9.11-85.86q8.7-2.98 19.26-3.42c22.71-.95 43.38 6.49 57.89 24.46 5.01 6.2 10.06 13.93 16.5 20.55a1.11 1.11 0 0 0 1.38.17q37.07-23.28 72.99-48.15 4.01-2.77 9.08-6.92.4-.33.17-.8-2.12-4.29-3.26-5.95c-30.52-44.79-67.8-73.78-123.83-77.94q-25.52-1.9-48.01-.86c-30.14 1.4-60.65 12.42-84.67 29.68q-38.27 27.49-51.97 74.35c-6.68 22.87-5.54 50.53-2.55 74.44 3.85 30.7 23.46 61.47 45.72 81.87 32.9 30.14 77.14 47.63 117.97 65.55q26.41 11.58 40.77 20.2c22.25 13.36 33.81 27.13 32.18 54.6-1.75 29.52-30.54 44.54-56.21 48.33-27.16 4.02-59.53-.31-82.08-16.77q-19.24-14.05-33.77-33.07c-2.95-3.86-6.99-10.04-10.58-15.04q-.35-.48-.87-.18-43.16 24.81-86.16 49.9-1.52.88-2.25 2.17-.28.5-.03 1.01c6.37 12.87 15.61 25.34 24.29 36.5 32.85 42.2 92.1 68.8 144.49 72.94q28.36 2.24 56.76.58 10.77-.63 19.85-2.27c68.38-12.37 125.9-52.73 135.92-125.43q5.65-41.05-6.55-80c-14.1-45.02-47.8-71.67-88.22-93.75-28.99-15.84-52.2-25.58-88.38-41.56q-20.32-8.98-34.94-19.33Zm-458.84-82.35q.63 0 .63.62v437.88q0 .5.5.5h108.25q.5 0 .5-.5v-438a.5.5 0 0 1 .5-.5H677.7q.64 0 .64-.64l-.96-95.79q-.01-.54-.54-.54c-128.02-.1-256.01-.92-384.03-.15q-14.76.09-30.11.44-1.68.03-1.74 1.71c-1.06 31.47-1.15 62.98-.93 94.55q0 .42.43.42h153.41Z"/><path fill="#fff" d="M881.82 640.74c-38.17 13.05-40.13 63.89-9.11 85.86q14.62 10.35 34.94 19.33c36.18 15.98 59.39 25.72 88.38 41.56 40.42 22.08 74.12 48.73 88.22 93.75q12.2 38.95 6.55 80c-10.02 72.7-67.54 113.06-135.92 125.43q-9.08 1.64-19.85 2.27-28.4 1.66-56.76-.58c-52.39-4.14-111.64-30.74-144.49-72.94-8.68-11.16-17.92-23.63-24.29-36.5q-.25-.51.03-1.01.73-1.29 2.25-2.17 43-25.09 86.16-49.9.52-.3.87.18c3.59 5 7.63 11.18 10.58 15.04q14.53 19.02 33.77 33.07c22.55 16.46 54.92 20.79 82.08 16.77 25.67-3.79 54.46-18.81 56.21-48.33 1.63-27.47-9.93-41.24-32.18-54.6q-14.36-8.62-40.77-20.2c-40.83-17.92-85.07-35.41-117.97-65.55-22.26-20.4-41.87-51.17-45.72-81.87-2.99-23.91-4.13-51.57 2.55-74.44q13.7-46.86 51.97-74.35c24.02-17.26 54.53-28.28 84.67-29.68q22.49-1.04 48.01.86c56.03 4.16 93.31 33.15 123.83 77.94q1.14 1.66 3.26 5.95.23.47-.17.8-5.07 4.15-9.08 6.92-35.92 24.87-72.99 48.15a1.11 1.11 0 0 1-1.38-.17c-6.44-6.62-11.49-14.35-16.5-20.55-14.51-17.97-35.18-25.41-57.89-24.46q-10.56.44-19.26 3.42ZM413.87 644.25H260.46q-.43 0-.43-.42c-.22-31.57-.13-63.08.93-94.55q.06-1.68 1.74-1.71 15.35-.35 30.11-.44c128.02-.77 256.01.05 384.03.15q.53 0 .54.54l.96 95.79q0 .64-.64.64H524.25a.5.5 0 0 0-.5.5v438q0 .5-.5.5H415q-.5 0-.5-.5V644.87q0-.62-.63-.62Z"/></svg>